<svg width="20.000000" height="20.000000" viewBox="0 0 20 20" fill="none" xmlns="http://www.w3.org/2000/svg" xmlns:xlink="http://www.w3.org/1999/xlink">
	<desc>
			Created with Pixso.
	</desc>
	<defs>
		<clipPath id="clip2_403">
			<rect id="icons/heart" rx="0.000000" width="19.000000" height="19.000000" transform="translate(0.500000 0.500000)" fill="white" fill-opacity="0"/>
		</clipPath>
	</defs>
	<g clip-path="url(#clip2_403)">
		<path id="Vector" d="M9.89 19C9.6 19 9.3 18.9 9.1 18.6C3.69 12.5 2.39 11.1 2.1 10.7C1.39 9.8 1 8.6 1 7.4C1 4.4 3.39 2 6.5 2C7.8 2 9 2.5 10 3.3C11 2.5 12.3 2 13.5 2C16.5 2 19 4.4 19 7.4C19 8.7 18.5 9.89 17.7 10.8L10.7 18.7C10.5 18.9 10.3 19 9.89 19ZM3.89 9.5C4.19 9.89 7.39 13.5 10 16.4L16.2 9.39C16.7 8.89 16.89 8.2 16.89 7.4C16.89 5.6 15.39 4.1 13.6 4.1C12.6 4.1 11.6 4.6 10.89 5.4C10.6 5.7 10.3 5.8 10 5.8C9.69 5.8 9.39 5.6 9.19 5.4C8.5 4.6 7.5 4.1 6.5 4.1C4.69 4.1 3.19 5.6 3.19 7.4C3.1 8.3 3.5 9 3.89 9.5Z" fill="#000000" fill-opacity="1.000000" fill-rule="nonzero"/>
	</g>
</svg>
